<svg width="306" height="339" viewBox="0 0 306 339" fill="none" xmlns="http://www.w3.org/2000/svg">
<g clip-path="url(#clip0_2_80)">
<path d="M298.132 169.4C297.267 163.503 298.332 157.561 299.885 151.875C305.702 130.611 311.838 105.995 293.568 88.3851C289.842 84.8141 285.395 82.0813 280.526 80.3703C275.657 78.6592 270.478 78.0095 265.337 78.4646C257.836 79.1817 249.799 82.6138 244.375 88.2485C243.537 79.9969 240.342 72.1608 235.172 65.6755C229.315 58.2764 220.698 51.9872 211.404 49.9098C210.778 49.7732 210.334 50.6668 210.948 50.9855C213.071 52.0783 215.143 53.2166 217.158 54.4005C209.309 55.0322 202.513 60.4962 197.419 66.2959C191.592 73.0473 187.108 80.85 184.209 89.2843C181.289 97.7766 179.666 106.66 179.394 115.637C179.226 120.194 179.365 124.758 179.809 129.296C180.259 133.85 180.999 138.534 183.549 142.45C187.761 148.904 195.456 152.444 203.026 152.695C211.466 152.945 219.361 148.864 225.285 143.07C228.326 140.072 230.899 136.634 232.918 132.871C234.016 130.944 234.851 128.878 235.399 126.729C236.014 124.077 235.32 121.431 235.809 118.818C236.134 117.071 237.158 115.568 238.149 114.105C238.597 114.657 239.09 115.171 239.623 115.642C242.498 118.178 245.686 120.333 249.111 122.057C252.854 123.9 256.995 124.79 261.165 124.646C264.45 124.55 269.168 122.005 272.213 122.626C277.58 123.724 273.647 133.861 272.384 136.582C269.361 143.087 265.315 149.103 264.415 156.388C264.415 156.532 264.444 156.674 264.498 156.807C264.553 156.939 264.634 157.06 264.735 157.161C264.837 157.263 264.957 157.343 265.09 157.398C265.223 157.453 265.365 157.481 265.508 157.481C268.507 157.168 271.379 156.11 273.863 154.402C271.769 162.16 271.188 171.135 278.593 176.167C279.367 176.696 280.175 175.968 280.266 175.211C280.772 171.092 281.756 167.047 283.198 163.156C283.767 169.001 284.905 174.955 288.32 179.747C291.963 184.795 297.928 188.284 304.257 187.191C305.344 187.004 305.395 185.683 304.826 184.995C301.289 180.459 298.984 175.087 298.132 169.4Z" fill="#FE5542"/>
<path d="M298.132 169.4C297.267 163.503 298.332 157.561 299.885 151.875C300.517 149.57 301.149 147.231 301.752 144.863C294.535 142.336 289.049 135.233 289.231 127.589C282.122 125.09 278.417 115.227 278.217 107.338C264.159 115.369 247.819 118.653 239.173 104.316C233.419 114.971 230.749 123.838 220.271 131.823C212.508 137.731 202.286 140.873 192.627 138.528C187.994 137.39 183.714 134.755 180.026 131.169C180.51 135.153 181.358 139.097 183.566 142.49C187.778 148.944 195.473 152.484 203.043 152.734C211.483 152.985 219.378 148.904 225.303 143.11C228.343 140.112 230.916 136.673 232.935 132.911C234.033 130.984 234.868 128.918 235.417 126.769C236.031 124.117 235.337 121.47 235.826 118.858C236.151 117.111 237.175 115.608 238.166 114.145C238.614 114.697 239.107 115.211 239.64 115.682C242.515 118.217 245.704 120.373 249.128 122.097C252.871 123.94 257.012 124.829 261.182 124.686C264.467 124.589 269.185 122.045 272.23 122.666C277.597 123.764 273.664 133.901 272.401 136.622C269.378 143.127 265.332 149.143 264.432 156.428C264.432 156.718 264.548 156.996 264.753 157.201C264.957 157.406 265.235 157.521 265.525 157.521C268.524 157.208 271.396 156.149 273.88 154.442C271.786 162.2 271.205 171.175 278.61 176.207C279.384 176.736 280.192 176.007 280.284 175.25C280.789 171.132 281.773 167.086 283.215 163.196C283.784 169.041 284.922 174.994 288.337 179.787C291.98 184.835 297.945 188.324 304.274 187.231C305.361 187.044 305.412 185.723 304.843 185.034C301.294 180.489 298.982 175.103 298.132 169.4Z" fill="#E0392D"/>
<path d="M252.304 91.8228C251.878 91.3717 251.367 91.01 250.8 90.7588C250.234 90.5077 249.622 90.3721 249.002 90.3601C248.266 90.1229 247.479 90.0914 246.726 90.269C246.734 90.2482 246.745 90.2289 246.76 90.2121C247.775 89.9879 248.739 89.5788 249.606 89.0055C250.218 88.6004 250.724 88.0559 251.085 87.4167C251.445 86.7774 251.648 86.0618 251.677 85.3287C251.725 84.622 251.544 83.9187 251.162 83.3223C250.78 82.726 250.216 82.2681 249.555 82.0162C249.091 81.8731 248.604 81.8286 248.122 81.8854C247.641 81.9423 247.177 82.0992 246.76 82.3463C245.994 82.5942 245.295 83.0148 244.717 83.5757C243.976 84.2396 243.393 85.0601 243.009 85.9775C242.947 86.1426 242.901 86.3076 242.855 86.4727C242.757 86.5242 242.676 86.6033 242.622 86.7004C241.404 89.125 241.41 92.0619 240.983 94.7028C240.556 97.3437 240.049 99.9789 239.486 102.603C238.923 105.227 238.274 107.828 237.551 110.412C237.192 111.698 236.839 113.007 236.595 114.322C236.413 115.329 236.082 116.536 236.595 117.475C236.611 117.502 236.632 117.526 236.657 117.546C236.682 117.565 236.711 117.579 236.742 117.587C236.773 117.595 236.805 117.596 236.836 117.592C236.867 117.587 236.898 117.577 236.925 117.56C237.277 117.378 237.58 117.112 237.807 116.786C237.807 116.832 237.847 116.883 237.881 116.934C238.091 117.247 238.36 117.515 238.672 117.725C238.853 117.85 239.06 117.931 239.277 117.964C239.493 117.996 239.715 117.979 239.924 117.913C240.138 117.831 240.329 117.7 240.483 117.531C240.637 117.362 240.75 117.16 240.812 116.94C240.912 116.642 240.981 116.335 241.017 116.024C241.061 115.806 241.082 115.585 241.08 115.363C241.08 115.284 241.08 115.204 241.046 115.13C241.188 115.23 241.336 115.321 241.489 115.403C241.778 115.579 242.11 115.672 242.449 115.672C242.787 115.672 243.119 115.579 243.408 115.403C243.672 115.186 243.886 114.913 244.034 114.604C244.183 114.296 244.262 113.958 244.267 113.616C244.323 113.059 244.261 112.497 244.085 111.965H244.136C245.605 111.965 246.379 110.457 246.555 109.199C246.7 107.899 246.414 106.587 245.741 105.466C245.616 105.255 245.48 105.051 245.331 104.857C245.845 105.038 246.403 105.052 246.925 104.896C247.511 104.681 248.02 104.295 248.384 103.788C248.748 103.28 248.952 102.675 248.968 102.051C249.082 100.673 248.399 99.552 247.585 98.5275C247.466 98.3739 247.318 98.243 247.192 98.1007C247.479 98.1375 247.769 98.1489 248.058 98.1348C248.123 98.1211 248.188 98.104 248.251 98.0836C248.809 98.1386 249.372 98.1195 249.924 98.0267C250.567 97.9111 251.174 97.6499 251.7 97.2632C252.226 96.8764 252.656 96.3744 252.958 95.7956C253.258 95.1436 253.355 94.417 253.239 93.709C253.122 93.0011 252.796 92.3442 252.304 91.8228Z" fill="#FF8E04"/>
<path d="M202.889 134.988L203.122 172.131L230.516 177.254L176.873 218.342L143.201 172.114L153.856 169.269L154.618 148.249C154.618 148.249 196.947 123.998 202.889 134.988Z" fill="#FFB99C"/>
<path d="M169.411 167.009C177.049 166.827 184.744 164.624 191.916 162.091C195.744 160.735 199.457 159.073 203.02 157.123L202.889 134.988C196.947 123.998 154.618 148.261 154.618 148.261L153.856 165.472C158.978 166.495 164.188 167.009 169.411 167.009Z" fill="#EF997B"/>
<path d="M220.3 109.029C218.575 107.567 216.39 106.76 214.13 106.752C217.243 84.6855 208 64.2128 190.436 57.7471C169.377 49.9951 144.379 65.2942 134.584 91.8968C124.789 118.499 133.901 146.377 154.949 154.123C171.625 160.264 190.772 151.926 202.889 134.965C207.772 136.291 214.096 134.015 218.66 128.801C224.472 122.176 225.206 113.32 220.3 109.029Z" fill="#FFB99C"/>
<path d="M166.952 76.962C173.976 80.4965 181.488 83.1659 188.785 86.0686C196.082 88.9713 203.999 92.3749 211.933 92.5343C212.752 92.5459 213.571 92.5117 214.386 92.4318C212.679 76.2847 204.101 62.7557 190.436 57.713C177.345 52.8922 162.74 56.9901 151.203 67.1667C154.795 71.8168 162.319 74.6171 166.952 76.962Z" fill="#EF997B"/>
<path d="M216.059 110.645C211.051 110.992 207.226 114.908 204.966 119.097C201.916 124.743 201.66 129.911 203.077 135.034C207.937 136.257 214.158 133.975 218.66 128.83C223.162 123.684 224.608 117.185 222.736 112.529C220.778 111.317 218.752 110.474 216.059 110.645Z" fill="#EF997B"/>
<path d="M220.818 59.0448C220.818 59.0448 210.926 35.8344 185.814 33.9334C160.703 32.0324 142.444 60.5645 143.582 60.1831C144.721 59.8018 206.355 87.1955 206.355 87.1955C206.355 87.1955 209.019 88.7152 207.493 93.6612C205.968 98.6072 197.983 109.643 199.525 119.154C199.525 119.154 209.799 106.217 217.027 106.217C224.255 106.217 231.467 73.8828 220.818 59.0448Z" fill="#FE5542"/>
<path d="M162.535 76.5465C160.356 70.428 153.628 69.7166 150.014 71.3045C149.313 71.6005 148.67 72.0209 148.119 72.5453C147.717 72.9438 147.457 73.4635 147.38 74.024C147.303 74.5846 147.413 75.155 147.692 75.6472C147.942 76.0759 148.294 76.4373 148.715 76.7C149.136 76.9628 149.615 77.1191 150.111 77.1555C150.993 77.201 152.029 76.7002 152.564 76.5863C152.672 76.5579 152.786 76.5408 152.888 76.5067H152.973H153.036C153.201 76.5067 153.361 76.5067 153.526 76.5067H153.571C153.816 76.5693 154.055 76.6489 154.294 76.7286H154.379L154.459 76.7799C154.63 76.888 154.806 76.9847 154.971 77.0986L155.318 77.349L155.392 77.4059L155.478 77.497C155.683 77.7076 155.888 77.9125 156.047 78.1402L156.206 78.345C156.252 78.419 156.389 78.6126 156.377 78.5955C156.554 78.8801 156.696 79.1646 156.878 79.4663C157.806 80.9063 159.508 82.3121 161.283 81.299C163.497 80.0582 163.218 78.4589 162.535 76.5465Z" fill="#FE5542"/>
<path d="M196.423 91.6919C195.41 85.2774 188.933 83.3309 185.08 84.2359C184.337 84.3979 183.629 84.6929 182.991 85.1067C182.523 85.4252 182.173 85.8884 181.995 86.4251C181.816 86.9618 181.818 87.5424 182.001 88.0777C182.169 88.5443 182.448 88.963 182.814 89.2981C183.18 89.6331 183.621 89.8745 184.101 90.0015C184.96 90.2121 186.07 89.9104 186.622 89.8649C186.734 89.8705 186.846 89.8705 186.958 89.8649H187.043H187.106L187.584 89.973H187.63C187.857 90.0812 188.079 90.2007 188.296 90.3259L188.375 90.3714L188.444 90.434C188.592 90.5706 188.745 90.6958 188.888 90.8381C189.03 90.9804 189.087 91.0487 189.183 91.1512L189.246 91.2195L189.314 91.3276C189.474 91.5723 189.639 91.8114 189.781 92.0675C189.781 92.0675 189.849 92.2041 189.901 92.2952C189.952 92.3863 190.032 92.5911 190.026 92.5741C190.145 92.8871 190.231 93.2115 190.356 93.5246C191.005 95.1125 192.416 96.7972 194.34 96.137C196.725 95.3288 196.742 93.7067 196.423 91.6919Z" fill="#FE5542"/>
<path d="M177.971 96.5696C177.557 97.0509 177.245 97.612 177.056 98.2184C176.867 98.8247 176.805 99.4634 176.872 100.095C176.94 100.726 177.136 101.337 177.45 101.89C177.763 102.442 178.186 102.925 178.693 103.308C179.2 103.69 179.78 103.965 180.397 104.114C181.014 104.264 181.656 104.285 182.282 104.177C182.907 104.069 183.504 103.833 184.036 103.485C184.567 103.137 185.021 102.684 185.37 102.153" stroke="#350E05" stroke-width="1.3" stroke-linecap="round" stroke-linejoin="round"/>
<path d="M145.113 84.4294C143.406 86.1767 144.544 89.5063 146.821 90.4227C149.098 91.339 151.784 90.3032 153.52 88.5672" stroke="#350E05" stroke-width="1.3" stroke-linecap="round" stroke-linejoin="round"/>
<path d="M163.344 89.6828C161.928 92.4255 159.628 94.6096 156.815 95.8809C154.84 96.7688 152.638 97.19 150.862 98.4308C149.534 99.3949 148.544 100.753 148.033 102.313C147.522 103.872 147.516 105.553 148.016 107.116" stroke="#350E05" stroke-width="1.3" stroke-linecap="round" stroke-linejoin="round"/>
<path d="M150.486 119.342C149.02 117.074 147.392 114.915 145.614 112.882C144.829 111.977 143.867 111.032 142.666 111.009C140.708 110.964 139.593 113.485 140.099 115.386C140.606 117.287 142.063 118.744 143.138 120.383C141.215 119.245 138.101 119.814 137.612 122.011C137.253 123.588 138.466 125.176 139.951 125.813C141.437 126.451 143.116 126.382 144.726 126.274" stroke="#350E05" stroke-width="1.3" stroke-linecap="round" stroke-linejoin="round"/>
<path d="M203.948 122.165C205.587 118.585 207.579 114.009 210.926 111.92C214.272 109.831 218.894 108.875 222.44 112.603" stroke="#350E05" stroke-width="1.3" stroke-linecap="round" stroke-linejoin="round"/>
<path d="M208.336 114.06C211.654 115.767 212.918 120.554 210.891 123.702" stroke="#350E05" stroke-width="1.3" stroke-linecap="round" stroke-linejoin="round"/>
<path d="M151.761 169.849C151.761 169.849 133.502 168.711 120.378 173.264C107.253 177.817 58.1626 215.502 58.1626 215.502L63.8542 198.381L27.9003 189.844C27.9003 189.844 -21.7249 262.298 11.3775 285.696C44.48 309.094 64.2754 286.362 77.5767 278.866C90.7015 271.467 106.678 254.33 106.678 254.33C106.678 254.33 110.093 275.44 120.378 280.579L121.516 300.551V332.51H229.947C229.947 332.51 266.47 334.786 271.035 304.547C275.599 274.307 271.035 204.608 269.896 197.829C265.343 170.435 220.823 173.862 208.268 172.718L176.878 200.111L151.761 169.849Z" fill="#FF8E04"/>
<path d="M106.678 254.313C106.678 254.313 110.093 275.423 120.378 280.562L121.516 300.534V310.375C130.685 307.285 140.298 305.162 149.024 303.039C154.277 299.692 163.554 300.534 169.627 300.842C173.117 300.102 176.661 299.653 180.225 299.498C184.061 297.984 188.54 297.603 192.519 297.267C195.023 297.062 197.539 296.977 200.06 296.943C201.369 296.789 202.639 296.653 203.794 296.51C206.708 296.146 211.193 295.372 214.21 296.71C216.111 296.471 218.057 296.209 220.015 295.97C222.075 295.474 224.642 295.241 225.451 293.943C226.754 291.843 226.116 288.713 226.31 286.362C226.504 284.012 227.186 281.684 227.215 279.31C227.145 279.287 227.076 279.258 227.01 279.225C221.222 276.032 214.955 275.964 209.56 271.701C205.069 268.05 201.457 263.436 198.99 258.2C189.047 264.142 181.284 268.73 168.825 268.411C158.762 268.155 148.676 265.667 139.877 260.71C126.308 253.066 113.013 235.445 114.083 218.66C108.26 227.152 99.1479 233.407 89.5291 236.874C83.4903 239.042 76.9506 240.05 70.5533 239.224C68.0914 238.962 65.68 238.346 63.3932 237.397C61.8394 236.709 60.1717 235.343 58.4472 234.261C58.8228 243.504 57.4796 252.537 54.9753 261.444C52.9036 268.843 50.9912 277.62 46.7851 284.114C43.575 289.054 38.7371 292.93 33.239 295.457C53.7289 298.946 67.5082 284.552 77.5767 278.861C90.7016 271.433 106.678 254.313 106.678 254.313Z" fill="#DD7300"/>
<path d="M116.382 210.937C116.382 210.937 105.727 248.78 106.871 256.214C108.015 263.647 114.669 279.418 120.565 280.944" stroke="#350E05" stroke-width="1.3" stroke-linecap="round" stroke-linejoin="round"/>
<path d="M141.494 169.28L175.734 210.937L179.73 209.799L218.535 172.701H208.262L176.873 200.094L151.767 169.849L141.494 169.28Z" stroke="#350E05" stroke-width="1.3" stroke-linecap="round" stroke-linejoin="round"/>
<path d="M146.627 174.989L154.618 173.275" stroke="#350E05" stroke-width="1.3" stroke-linecap="round" stroke-linejoin="round"/>
<path d="M151.767 182.405L159.752 179.553" stroke="#350E05" stroke-width="1.3" stroke-linecap="round" stroke-linejoin="round"/>
<path d="M158.614 189.252L165.461 185.831" stroke="#350E05" stroke-width="1.3" stroke-linecap="round" stroke-linejoin="round"/>
<path d="M165.461 198.381L172.308 194.391" stroke="#350E05" stroke-width="1.3" stroke-linecap="round" stroke-linejoin="round"/>
<path d="M171.17 205.234L176.873 200.094L183.15 205.803" stroke="#350E05" stroke-width="1.3" stroke-linecap="round" stroke-linejoin="round"/>
<path d="M183.15 194.391L191.141 198.381" stroke="#350E05" stroke-width="1.3" stroke-linecap="round" stroke-linejoin="round"/>
<path d="M192.855 185.256L200.846 189.252" stroke="#350E05" stroke-width="1.3" stroke-linecap="round" stroke-linejoin="round"/>
<path d="M202.553 177.271L209.975 180.692" stroke="#350E05" stroke-width="1.3" stroke-linecap="round" stroke-linejoin="round"/>
<path d="M254.574 327.45C259.077 323.341 238.809 340.222 150.048 332.493C150.048 332.493 149.097 309.664 148.716 305.674C148.335 301.684 147.197 302.259 147.197 302.259L227.09 294.86L228.797 196.708" stroke="#350E05" stroke-width="1.3" stroke-linecap="round" stroke-linejoin="round"/>
<path d="M146.246 303.767L147.202 302.247" stroke="#350E05" stroke-width="1.3" stroke-linecap="round" stroke-linejoin="round"/>
<path d="M151.761 302.06C151.761 302.06 155.569 324.883 154.237 332.493" stroke="#350E05" stroke-width="1.3" stroke-linecap="round" stroke-linejoin="round"/>
<path d="M46.7794 280.944C46.7794 280.944 47.1607 282.082 53.2507 269.145C59.3408 256.208 57.4341 218.928 57.804 217.784C58.174 216.64 63.8542 198.381 63.8542 198.381C63.8542 198.381 39.1242 196.48 28.4752 189.844" stroke="#350E05" stroke-width="1.3" stroke-linecap="round" stroke-linejoin="round"/>
<path d="M25.0715 193.435C26.2099 194.574 42.5733 205.61 62.3573 203.68" stroke="#350E05" stroke-width="1.3" stroke-linecap="round" stroke-linejoin="round"/>
<path d="M31.5429 191.153L28.8792 196.099" stroke="#350E05" stroke-width="1.3" stroke-linecap="round" stroke-linejoin="round"/>
<path d="M38.0086 193.435L36.4889 199.525" stroke="#350E05" stroke-width="1.3" stroke-linecap="round" stroke-linejoin="round"/>
<path d="M44.8556 195.342L43.7173 202.189" stroke="#350E05" stroke-width="1.3" stroke-linecap="round" stroke-linejoin="round"/>
<path d="M52.084 196.862V203.327" stroke="#350E05" stroke-width="1.3" stroke-linecap="round" stroke-linejoin="round"/>
<path d="M58.174 197.243V203.709" stroke="#350E05" stroke-width="1.3" stroke-linecap="round" stroke-linejoin="round"/>
<path d="M111.539 229.207C111.915 224.119 110.866 219.026 108.511 214.5" stroke="#350E05" stroke-width="1.3" stroke-linecap="round" stroke-linejoin="round"/>
<path d="M148.341 304.558C148.341 304.558 119.234 339.368 108.96 333.09C108.96 333.09 104.589 328.338 98.3112 329.476C92.0334 330.614 87.1329 335.566 83.7065 336.704C80.2802 337.843 74.6 338.981 73.4616 335.566C72.3233 332.151 75.7383 319.965 81.9991 317.114C88.2598 314.262 123.229 301.103 148.341 304.558Z" fill="#FFB99C"/>
<path d="M112.193 322.032C112.193 322.032 100.639 321.081 94.1735 323.739C88.5615 326.05 78.5727 337.814 78.5727 337.814" stroke="#350E05" stroke-width="1.3" stroke-linecap="round" stroke-linejoin="round"/>
<path d="M104.965 315.56C104.965 315.56 92.6481 317.268 85.9946 321.462C79.3411 325.657 75.1464 337.251 75.1464 337.251" stroke="#350E05" stroke-width="1.3" stroke-linecap="round" stroke-linejoin="round"/>
<path d="M75.966 116.61C73.2795 114.373 69.3295 113.724 65.9373 113.627C61.7691 113.494 57.6258 114.317 53.8256 116.035C52.0929 116.83 50.4966 117.895 49.0959 119.188C49.0177 119.173 48.937 119.177 48.8607 119.2C48.7844 119.223 48.7147 119.264 48.6576 119.319C44.2807 123.844 40.2226 128.653 35.3392 132.672C30.4558 136.69 25.2024 139.558 19.7783 142.575C17.2149 143.941 14.7754 145.527 12.4874 147.316C10.7002 148.767 8.6114 150.498 8.22437 152.911C7.89995 154.903 9.17486 156.787 11.3434 156.559C11.88 156.486 12.3999 156.32 12.8801 156.07C11.4743 158.722 10.8653 161.608 12.163 164.192C14.3087 168.455 19.4141 166.633 23.438 164.032C22.1176 167.527 21.3378 171.215 22.2997 174.846C23.3584 178.774 26.3522 182.502 30.5867 183.065C35.0148 183.634 38.6916 180.612 41.2642 177.373C43.3008 174.731 45.097 171.912 46.6314 168.95C46.847 170.577 47.3849 172.144 48.2137 173.56C49.8471 176.258 53.0344 177.208 55.664 175.268C58.6008 173.105 59.927 168.944 61.441 165.802C63.6607 161.192 65.8804 156.588 68.1855 152.017C72.2493 143.964 76.5863 135.842 78.4304 126.934C79.2215 123.269 79.0679 119.188 75.966 116.61Z" fill="#7AB20F"/>
<path d="M49.7902 126.877C48.4356 128.113 47.3941 129.786 46.1988 131.18C44.8897 132.7 43.5807 134.231 42.2147 135.682C39.5099 138.521 36.6482 141.206 33.6431 143.725C30.6389 146.231 27.4481 148.505 24.0983 150.526C22.4534 151.522 20.7801 152.467 19.1181 153.429C17.4562 154.391 15.5666 155.262 14.0981 156.502C14.0369 156.557 13.9948 156.631 13.9781 156.711C13.9614 156.792 13.9709 156.876 14.0052 156.951C14.0395 157.026 14.0968 157.088 14.1688 157.128C14.2408 157.168 14.3237 157.184 14.4055 157.174C18.1904 156.815 22.1404 154.476 25.3277 152.547C28.7748 150.465 32.0639 148.133 35.1685 145.569C38.2083 143.068 41.018 140.301 43.5636 137.299C44.9233 135.712 46.2018 134.058 47.3941 132.341C48.447 130.788 49.7788 129.08 50.3935 127.293C50.4846 126.98 50.0748 126.621 49.7902 126.877Z" fill="#618909"/>
<path d="M57.8553 133.241C55.6128 135.517 53.6492 138.073 51.4351 140.389C49.2211 142.706 46.99 144.84 44.6052 146.895C42.2213 148.948 39.7265 150.869 37.1321 152.649C34.4912 154.465 31.7421 156.115 29.2321 158.119C28.9305 158.363 29.2322 158.779 29.5737 158.659C35.5385 156.542 40.8089 152.108 45.5102 147.988C47.862 145.927 50.102 143.742 52.2206 141.442C54.4346 139.029 56.6885 136.53 58.3163 133.679C58.4871 133.406 58.1285 132.973 57.8553 133.241Z" fill="#618909"/>
<path d="M104.948 164.34C104.247 163.261 103.457 162.242 102.586 161.295C101.715 160.384 100.762 159.555 99.7398 158.819C99.1915 158.397 98.5809 158.063 97.9299 157.828L97.8502 157.8H97.7933C97.8647 157.601 97.905 157.391 97.9128 157.18H97.9697C97.9697 157.037 97.9299 156.889 97.9128 156.747C97.4575 153.435 97.1217 150.105 96.8827 146.764C96.7631 145.125 96.672 143.463 96.4785 141.829C96.285 140.196 95.8411 138.562 95.4882 136.9C95.4449 136.763 95.3589 136.643 95.2427 136.558C95.1266 136.473 94.9863 136.427 94.8422 136.427C94.6981 136.427 94.5578 136.473 94.4416 136.558C94.3254 136.643 94.2395 136.763 94.1962 136.9C94.1507 137.151 94.0994 137.396 94.0482 137.646C93.8244 137.529 93.5779 137.461 93.3256 137.448C93.0734 137.435 92.8212 137.476 92.5862 137.569C92.3513 137.662 92.1391 137.804 91.9642 137.986C91.7892 138.169 91.6556 138.386 91.5724 138.625C91.5382 138.596 91.5098 138.557 91.4756 138.528C91.3722 138.428 91.2448 138.357 91.1057 138.321C90.9666 138.284 90.8206 138.285 90.6816 138.321C90.5426 138.358 90.4154 138.43 90.3123 138.53C90.2091 138.63 90.1334 138.755 90.0925 138.892C89.6087 140.52 90.1722 142.171 90.582 143.753C90.9918 145.335 91.3732 146.952 91.7545 148.557C92.1358 150.162 92.5001 151.761 92.8359 153.378C93.0066 154.209 93.1774 155.045 93.3368 155.888C93.3937 156.172 93.4449 156.457 93.4961 156.747L93.0123 156.508C91.6775 155.977 90.2787 155.622 88.8518 155.455C88.4981 155.366 88.1238 155.416 87.8061 155.595C87.4883 155.774 87.2514 156.068 87.1443 156.417C87.0478 156.771 87.0946 157.149 87.2747 157.468C87.4547 157.788 87.7535 158.024 88.1062 158.124C91.0644 158.852 93.7999 160.292 96.0744 162.319C97.2753 163.332 98.3169 164.51 99.4894 165.529C100.117 166.008 100.779 166.439 101.47 166.821C101.834 167.265 102.199 167.709 102.574 168.142C102.62 168.199 102.665 168.25 102.705 168.307C102.865 168.637 103.056 168.951 103.274 169.246L103.326 169.314C103.377 169.377 103.417 169.434 103.468 169.491C103.663 169.686 103.899 169.834 104.159 169.925C104.419 170.015 104.697 170.046 104.97 170.014C105.405 169.96 105.805 169.749 106.095 169.421C106.386 169.093 106.546 168.671 106.547 168.233C106.541 166.821 105.676 165.472 104.948 164.34Z" fill="#EA3628"/>
<path d="M97.1103 130.287C97.1103 127.441 97.0249 124.567 96.8883 121.709C96.7631 119.091 96.729 116.291 94.976 114.174C93.2229 112.056 90.5365 111.977 88.0265 112.751C85.2319 113.61 82.9553 114.874 81.8852 117.731C81.4539 118.953 81.2065 120.233 81.151 121.527C81.0665 122.241 81.1206 122.963 81.3104 123.656C81.3388 123.736 81.373 123.815 81.4072 123.901C81.4982 124.555 81.6007 125.204 81.686 125.864C81.8949 127.18 82.248 128.468 82.739 129.706C83.6518 132.225 84.7279 134.681 85.9605 137.06C87.0703 139.16 88.7664 141.044 91.2195 141.425C92.4092 141.631 93.6328 141.383 94.648 140.729C95.6631 140.076 96.3957 139.065 96.7005 137.896C97.4348 135.517 97.116 132.717 97.1103 130.287Z" fill="#7AB20F"/>
<path d="M28.9248 189.821C28.9248 189.821 43.723 159.052 57.3032 154.009C70.8834 148.967 93.0863 157.538 99.6374 164.089C106.188 170.64 113.753 182.758 113.753 182.758L97.116 197.374C97.116 197.374 78.9711 188.284 76.9449 185.763C74.9187 183.242 69.8873 192.821 62.3289 197.858C62.3403 197.858 38.6233 195.387 28.9248 189.821Z" fill="#FFB99C"/>
<path d="M62.3403 197.858C62.3403 197.858 71.9192 190.049 74.691 186.013L76.9677 185.763C76.9677 185.763 92.5912 196.85 97.1274 197.357L113.753 182.758" stroke="#350E05" stroke-width="1.3" stroke-linecap="round" stroke-linejoin="round"/>
<path d="M70.6841 177.698C70.6841 177.698 88.5786 176.44 100.172 194.078" stroke="#350E05" stroke-width="1.3" stroke-linecap="round" stroke-linejoin="round"/>
<path d="M76.9449 170.39C76.9449 170.39 98.1177 175.933 105.676 190.049" stroke="#350E05" stroke-width="1.3" stroke-linecap="round" stroke-linejoin="round"/>
<path d="M85.2718 163.839C85.2718 163.839 103.695 171.375 110.474 185.262" stroke="#350E05" stroke-width="1.3" stroke-linecap="round" stroke-linejoin="round"/>
<path d="M91.1114 157.902C89.3091 155.667 86.955 153.941 84.2814 152.894C82.8409 152.327 81.3303 151.957 79.7907 151.795C79.3411 151.75 78.8403 151.721 78.3337 151.716C78.3337 150.856 78.2313 150.008 78.1345 149.172C77.9296 147.401 77.7759 145.631 77.5938 143.861C77.4117 142.091 77.3092 140.304 77.1043 138.534C76.9905 137.578 76.8596 136.621 76.7457 135.66C76.7173 134.895 76.5535 134.142 76.2619 133.434C76.2299 133.388 76.1874 133.351 76.1378 133.325C76.0883 133.299 76.0332 133.286 75.9774 133.286C75.9215 133.286 75.8664 133.299 75.8169 133.325C75.7674 133.351 75.7248 133.388 75.6928 133.434C75.3983 134.184 75.2402 134.98 75.2261 135.785C74.9317 135.373 74.5561 135.026 74.1225 134.764C73.6889 134.503 73.2064 134.333 72.7047 134.265C72.4655 134.204 72.2157 134.198 71.9739 134.247C71.732 134.296 71.5044 134.4 71.308 134.549C71.1116 134.698 70.9514 134.89 70.8394 135.11C70.7275 135.33 70.6666 135.572 70.6614 135.819C70.6614 136.32 70.6614 136.826 70.6614 137.327C70.615 137.401 70.5894 137.485 70.5874 137.572C70.5874 137.953 70.6329 138.335 70.6785 138.71C70.7808 142.91 71.4451 147.077 72.6535 151.101C71.7047 151.043 70.7526 151.065 69.8077 151.169C67.9984 151.3 66.227 151.753 64.5771 152.507C62.9151 153.372 62.1012 155.705 63.5981 157.134C65.095 158.563 67.218 157.202 68.8401 156.73C70.4675 156.258 72.1542 156.022 73.8487 156.03C74.0593 156.599 74.2642 157.168 74.4976 157.737C74.8732 158.637 75.2488 159.507 75.5562 160.447C76.2164 162.416 76.7628 164.493 77.8784 166.269C78.5557 167.339 79.4151 168.495 80.6786 168.882C81.3776 169.063 82.1187 168.984 82.7637 168.659C83.4087 168.334 83.9137 167.786 84.1847 167.117C84.8164 165.694 84.327 164.271 83.7464 162.917C83.2904 161.864 82.7577 160.846 82.1528 159.872C81.4354 158.721 80.6305 157.627 79.7452 156.599L79.4493 156.263C79.6588 156.278 79.8665 156.312 80.0696 156.366C80.6345 156.546 81.1768 156.791 81.6861 157.094C84.0879 158.466 85.7157 160.862 87.998 162.422C89.2047 163.235 90.9748 163.56 92.1302 162.49C93.6328 160.987 92.1302 159.189 91.1114 157.902Z" fill="#FE5542"/>
<path d="M113.815 64.2754C111.243 57.7129 100.4 49.4373 101.259 44.8727C102.119 40.308 101.829 19.1921 100.69 15.4812L100.406 14.3429C100.406 14.3429 91.7659 9.88632 83.1033 8.77076C83.3935 8.60001 83.6724 8.45773 83.9798 8.28698C84.5489 7.94548 84.5205 6.88684 83.7806 6.75593C82.2898 6.47673 80.7512 6.60856 79.3297 7.13727C78.6389 7.40192 77.9847 7.75386 77.3832 8.18453C77.1897 8.33251 76.9905 8.50325 76.814 8.67969C76.5693 8.71384 76.3188 8.72523 76.0798 8.76507C78.3792 6.65538 80.616 4.4736 82.7902 2.21972C82.9814 2.0111 83.1002 1.74638 83.1289 1.46488C83.1576 1.18338 83.0947 0.900117 82.9496 0.657199C82.8045 0.41428 82.5849 0.224663 82.3234 0.116514C82.0619 0.00836557 81.7725 -0.0125417 81.4982 0.0569026C78.4703 0.791121 76.1083 2.95394 74.0991 5.22489L73.6609 5.72575C74.1299 4.45959 74.3895 3.12544 74.4293 1.77577C74.4293 0.540692 72.7673 -0.233374 71.9079 0.728509C69.4341 3.46196 67.3902 6.5556 65.8463 9.9034C65.1119 11.5575 64.5197 13.2712 64.0762 15.0258C64.0364 15.1624 64.0193 15.3104 63.9851 15.447C60.4336 19.2889 58.4301 24.2804 57.5991 29.7671C55.2485 45.2939 61.5833 63.433 60.7409 68.5725C59.8986 73.7121 51.0651 106.809 49.3235 109.091C47.5819 111.373 44.7702 116.223 48.4698 121.931C50.8489 125.591 58.5155 129.331 65.7438 130.691C66.239 132.484 66.7627 134.271 67.3546 136.035C67.9461 138.082 68.9601 139.982 70.3313 141.613C71.4696 142.894 73.7463 144.641 75.5619 143.952C77.3775 143.264 77.6393 140.099 77.8897 138.505C78.1972 136.242 78.3456 133.96 78.3337 131.675C78.3337 130.862 78.3337 130.053 78.3052 129.239C86.9337 124.379 104.179 109.319 108.676 97.6681C113.525 85.101 116.382 70.8378 113.815 64.2754Z" fill="#8DD316"/>
<path d="M70.5305 32.2316C72.2892 43.1197 82.3577 44.036 90.1438 48.7999C94.4637 51.4351 97.8901 55.4932 103.604 54.5598C104.478 54.4039 105.312 54.0749 106.058 53.5922C103.212 50.2228 100.838 47.1038 101.259 44.8727C102.113 40.3194 101.829 19.1921 100.69 15.4812L100.406 14.3429C100.406 14.3429 99.2162 13.7339 97.2811 12.9029C84.8278 11.11 68.1685 17.6497 70.5305 32.2316Z" fill="#F2FFDC"/>
<path d="M101.203 12.2142C101.009 12.3394 100.827 12.4817 100.633 12.6069C100.471 12.4747 100.273 12.3953 100.064 12.3793C99.5592 12.3535 99.0537 12.421 98.5731 12.5785C98.4649 11.5426 98.0039 10.6775 96.4956 10.9905C95.2437 11.2661 94.1164 11.9438 93.2856 12.92C92.9215 12.7879 92.5302 12.7488 92.1472 12.8061C91.5276 12.9239 90.9637 13.2418 90.5422 13.7111C90.104 14.155 89.6543 14.5421 89.1933 14.9633C87.4858 16.5057 88.7437 18.7254 90.5821 19.1238L90.3999 20.4841C90.22 21.2311 90.2083 22.0087 90.3658 22.7608C90.4766 23.0851 90.6545 23.3825 90.8879 23.6335C91.1213 23.8845 91.405 24.0836 91.7204 24.2178C91.5895 25.8058 91.8513 27.5588 93.075 28.6345C93.5656 29.0489 94.1858 29.2785 94.828 29.2834C95.1126 30.8144 95.898 32.3113 97.7592 31.8503C100.104 31.2811 100.377 28.2873 100.605 26.5229C100.885 24.2765 101.406 22.0668 102.159 19.932C102.91 17.7692 103.525 15.6121 103.354 13.3241C103.252 12.4532 102.13 11.5881 101.203 12.2142Z" fill="#D12918"/>
<path d="M96.5013 27.462C96.5013 27.462 95.5394 40.4788 104.47 39.5169C113.4 38.555 115.284 28.4296 115.284 28.4296C115.284 28.4296 97.7079 24.8097 96.5013 27.462Z" fill="#350E05"/>
<path d="M98.4308 13.7168C98.4308 13.7168 106.143 14.2006 112.66 17.331C119.177 20.4614 119.165 33.9676 119.165 33.9676C119.165 33.9676 115.306 29.4143 112.905 28.663C110.503 27.9117 106.644 29.8696 104.225 30.1086C101.806 30.3477 96.0289 28.663 96.2566 26.2497C96.4842 23.8365 98.4308 13.7168 98.4308 13.7168Z" fill="#230703"/>
<path d="M88.4192 22.7551C88.4203 23.2923 88.2621 23.8177 87.9644 24.2649C87.6668 24.7122 87.2432 25.061 86.7472 25.2674C86.2512 25.4737 85.7052 25.5283 85.1782 25.4242C84.6512 25.3201 84.1669 25.062 83.7866 24.6825C83.4064 24.303 83.1472 23.8193 83.042 23.2925C82.9368 22.7657 82.9902 22.2196 83.1955 21.7231C83.4008 21.2267 83.7488 20.8024 84.1954 20.5038C84.642 20.2052 85.1671 20.0459 85.7043 20.0459C86.4229 20.0474 87.1117 20.3331 87.6204 20.8407C88.129 21.3483 88.4162 22.0365 88.4192 22.7551Z" fill="#230703"/>
<path d="M92.7847 27.075C91.6919 27.4393 90.8723 28.4467 89.8991 29.0443C88.838 29.6915 87.6873 30.1787 86.4841 30.49C85.0911 30.8423 83.6577 31.0088 82.2211 30.9852C81.4869 30.9852 80.7583 30.9282 80.0298 30.8656C79.4208 30.8087 78.6638 30.5924 78.0833 30.7916C77.9694 30.8258 77.8954 30.9908 78.0036 31.0762C78.5901 31.4124 79.2515 31.5964 79.9273 31.6112C80.6424 31.7119 81.3626 31.7727 82.0845 31.7934C83.6441 31.8603 85.2058 31.7206 86.7288 31.3779C88.028 31.0743 89.2761 30.5835 90.4341 29.9208C91.4358 29.3517 92.8018 28.5207 93.0351 27.3027C93.048 27.2685 93.0502 27.2314 93.0417 27.1959C93.0331 27.1605 93.0141 27.1284 92.9871 27.1039C92.9602 27.0794 92.9264 27.0635 92.8904 27.0584C92.8543 27.0532 92.8175 27.059 92.7847 27.075Z" fill="#230703"/>
<path d="M91.3106 31.56C91.2681 31.4916 91.2049 31.4386 91.1301 31.4089C91.0553 31.3792 90.9729 31.3743 90.8951 31.3949C89.8934 31.7478 89.3413 32.9317 88.7209 33.7228C88.062 34.6039 87.2289 35.3401 86.2735 35.8856C85.189 36.4337 84.0114 36.7735 82.8016 36.8873C82.16 36.9717 81.511 36.9851 80.8665 36.9272C80.229 36.876 79.6086 36.6711 78.9769 36.654C78.9223 36.6543 78.869 36.6706 78.8236 36.701C78.7782 36.7313 78.7427 36.7742 78.7215 36.8245C78.7003 36.8748 78.6943 36.9302 78.7043 36.9839C78.7143 37.0375 78.7398 37.0871 78.7776 37.1264C79.6371 38.2021 81.447 38.6517 82.7618 38.8339C84.3336 39.0013 85.9195 38.694 87.315 37.9517C88.5215 37.3415 89.5817 36.4775 90.4227 35.4189C91.1171 34.5026 92.17 32.7097 91.3106 31.56Z" fill="#230703"/>
<path d="M94.0767 33.1821C94.0423 33.1245 93.9866 33.0826 93.9217 33.0656C93.8568 33.0486 93.7877 33.0577 93.7295 33.0911C93.3211 33.4366 93.0504 33.9173 92.9668 34.4457C92.8652 34.9802 92.7263 35.507 92.5513 36.0222C92.2613 36.8457 91.8362 37.6151 91.2935 38.2989C90.7506 38.967 90.1252 39.5637 89.4323 40.0747C88.7493 40.5926 87.7761 41.0024 87.4004 41.7822C87.3673 41.8395 87.3584 41.9077 87.3754 41.9717C87.3925 42.0357 87.4342 42.0903 87.4915 42.1237C88.4022 42.579 89.4836 41.9814 90.2576 41.4691C91.1157 40.8803 91.8664 40.1488 92.4773 39.3063C93.0811 38.4978 93.5572 37.6013 93.8889 36.6483C94.0761 36.1081 94.2133 35.5517 94.2986 34.9864C94.3823 34.6858 94.4058 34.3717 94.3677 34.0621C94.3296 33.7525 94.2307 33.4534 94.0767 33.1821Z" fill="#230703"/>
<path d="M95.2264 37.9859C95.1239 38.1964 95.0101 38.3956 94.9077 38.6005C94.8052 38.8054 94.7085 39.09 94.5946 39.3291C94.3869 39.7673 94.1472 40.1896 93.8775 40.5926C93.6202 40.9825 93.3328 41.3517 93.018 41.6968C92.6879 42.061 92.3236 42.3741 91.9765 42.7156C91.6293 43.0571 90.8666 43.6775 91.3732 44.184C91.8797 44.6906 92.5115 44.1328 92.9042 43.8482C93.7277 43.1894 94.4323 42.3943 94.9873 41.4976C95.2935 41.0283 95.5619 40.5353 95.7898 40.0234C95.9037 39.7559 96.0289 39.4543 96.12 39.2095C96.2021 38.9021 96.2555 38.5877 96.2793 38.2704C96.3476 37.7183 95.4597 37.5021 95.2264 37.9859Z" fill="#230703"/>
<path d="M83.8773 27.4677C83.385 27.4973 82.8913 27.4376 82.4203 27.2913C81.9705 27.1694 81.549 26.9605 81.1795 26.6766L81.0714 26.5855L80.9348 26.4603C80.8323 26.3693 80.7412 26.2725 80.6445 26.1757C80.5477 26.079 80.4737 25.9936 80.394 25.8968V25.8684V25.8286L80.2916 25.6749C80.0521 25.2262 79.7471 24.8157 79.3866 24.4569C79.3662 24.4375 79.3417 24.423 79.315 24.4144C79.2882 24.4058 79.2598 24.4033 79.2319 24.4072C79.2041 24.411 79.1774 24.421 79.154 24.4365C79.1305 24.452 79.1108 24.4726 79.0964 24.4967C78.9476 24.7803 78.8786 25.099 78.8966 25.4187C78.9146 25.7384 79.0191 26.0473 79.1988 26.3123C79.524 26.8687 79.9717 27.3437 80.5079 27.7011C81.0107 28.0422 81.5752 28.2819 82.1698 28.4069C82.7959 28.5229 83.4422 28.4557 84.031 28.2133C84.1187 28.1882 84.1945 28.1325 84.2446 28.0563C84.2948 27.98 84.3159 27.8883 84.3042 27.7979C84.2986 27.7478 84.283 27.6994 84.2584 27.6555C84.2337 27.6117 84.2005 27.5732 84.1607 27.5424C84.1209 27.5116 84.0753 27.4891 84.0266 27.4763C83.9779 27.4635 83.9271 27.4606 83.8773 27.4677Z" fill="#230703"/>
<path d="M84.7026 33.6659C84.3953 33.6659 84.1334 33.5976 83.8147 33.5919C83.496 33.5862 83.2171 33.5919 82.9154 33.5919C82.342 33.562 81.7714 33.4916 81.2079 33.3813C80.6388 33.2561 80.0696 33.0739 79.5005 32.9032C79.2065 32.7994 78.9036 32.7232 78.5955 32.6755C78.353 32.6199 78.1027 32.6064 77.8556 32.6357C77.7976 32.6541 77.7486 32.6935 77.7181 32.7461C77.6876 32.7987 77.6778 32.8608 77.6905 32.9203C77.7812 33.193 77.9376 33.4393 78.1458 33.6374C78.3935 33.8853 78.6799 34.091 78.9939 34.2464C79.6048 34.5574 80.2623 34.7669 80.9405 34.8668C81.5993 34.9879 82.2722 35.0129 82.9382 34.9408C83.2942 34.9077 83.6466 34.843 83.9911 34.7473C84.3037 34.629 84.6047 34.4823 84.8904 34.309C84.9702 34.2796 85.0359 34.221 85.0742 34.1451C85.1125 34.0691 85.1205 33.9815 85.0966 33.8998C85.0728 33.8182 85.0189 33.7486 84.9457 33.7052C84.8726 33.6618 84.7857 33.6477 84.7026 33.6659Z" fill="#230703"/>
<path d="M112.108 64.6283C112.063 64.5552 111.999 64.4966 111.922 64.4597C111.845 64.4229 111.758 64.4094 111.674 64.4209C111.589 64.4324 111.51 64.4683 111.445 64.5244C111.381 64.5805 111.334 64.6542 111.311 64.7364C110.975 66.0796 110.742 67.3944 109.717 68.4246C109.208 68.9985 108.539 69.4082 107.796 69.6017C107.054 69.7952 106.27 69.7639 105.545 69.5117C105.207 69.3843 104.887 69.212 104.595 68.9994C104.826 68.5072 104.997 67.9895 105.107 67.457C105.375 66.0739 105.357 63.5412 103.895 62.75C102.096 61.7825 101.271 64.2982 101.294 65.5958C101.35 66.9821 101.89 68.3048 102.819 69.3352C102.099 70.29 101.049 70.9428 99.8739 71.1669C98.699 71.3909 97.4827 71.1702 96.4614 70.5476C96.03 70.2584 95.6541 69.894 95.3516 69.4718C96.5298 68.3335 97.6282 66.9789 97.6965 65.5617C97.7648 64.1445 96.6607 62.6476 95.1695 62.9265C93.3994 63.2566 92.8928 65.5446 92.9839 67.0586C93.0328 67.8076 93.226 68.5401 93.553 69.2157C91.5724 71.02 88.8005 72.7502 86.2165 71.3615C85.9993 71.2357 85.7936 71.0909 85.6019 70.9289C86.5965 70.0695 87.3646 68.9789 87.8387 67.753C88.4647 66.0853 88.2997 63.8656 86.4613 63.0403C84.6229 62.215 83.1431 63.729 82.5853 65.317C82.315 66.1499 82.232 67.0323 82.3422 67.9011C82.4524 68.7698 82.7531 69.6035 83.2228 70.3426C82.2128 70.9422 81.0407 71.2109 79.8704 71.111C76.1765 70.7468 74.1788 66.626 76.5693 63.6038C76.8197 63.2907 76.4896 62.7102 76.0969 62.9891C75.3138 63.476 74.6942 64.186 74.318 65.0279C73.9417 65.8697 73.8258 66.8049 73.9853 67.7131C74.1275 68.7009 74.5145 69.6375 75.1109 70.4377C75.7073 71.2379 76.4943 71.8763 77.4002 72.2949C78.5194 72.8075 79.7499 73.0293 80.9777 72.9397C82.2054 72.8502 83.3907 72.4522 84.4237 71.7826C85.3111 72.6011 86.4431 73.1051 87.6451 73.2169C89.8706 73.3991 91.9309 72.3347 93.6156 70.9744C93.8376 70.798 94.0767 70.5931 94.3271 70.4053C95.1908 71.4223 96.3608 72.1323 97.6618 72.4288C98.9629 72.7253 100.325 72.5925 101.544 72.0501C102.436 71.647 103.217 71.0338 103.821 70.263C104.022 70.4078 104.233 70.539 104.452 70.6557C108.033 72.551 114.054 68.8571 112.108 64.6283ZM83.9228 66.1422C83.9966 65.7777 84.1566 65.4362 84.3895 65.1462C84.8259 64.2355 85.5449 64.4746 86.5467 65.8633C86.6946 67.0814 85.4767 68.5726 84.4294 69.5003C84.2267 69.1413 84.0681 68.759 83.957 68.362C83.7514 67.6378 83.7396 66.8724 83.9228 66.1422ZM94.5434 65.2999L96.0915 66.3358C96.1712 66.6716 95.1979 67.6334 94.6515 68.1628C94.4545 67.6542 94.3504 67.1144 94.3442 66.5691C94.3441 66.1382 94.4113 65.71 94.5434 65.2999ZM102.722 66.1138C102.643 65.6983 102.477 63.6493 103.576 64.2754C104.145 64.5941 103.94 66.5919 103.843 67.1212C103.785 67.4267 103.697 67.7259 103.582 68.0148C103.15 67.4571 102.856 66.806 102.722 66.1138Z" fill="#618909"/>
<path d="M112.654 84.0253C112.445 84.2173 112.193 84.3576 111.92 84.4351C112.706 82.2701 112.876 79.9291 112.409 77.6734C112.38 77.5569 112.319 77.4504 112.234 77.3653C112.149 77.2802 112.042 77.2195 111.926 77.1897C108.568 76.6205 108.363 80.2518 109.051 82.5739C109.239 83.4203 109.685 84.1877 110.326 84.7709C110.312 84.808 110.294 84.8441 110.275 84.879C109.29 86.6207 107.6 88.0037 105.483 87.6338C104.713 87.4993 103.999 87.1478 103.422 86.6207C104.527 85.1693 105.545 83.3935 105.249 81.5722C105.062 80.3883 103.997 78.7947 102.62 79.5232C100.855 80.4623 100.411 83.3821 100.855 85.101C100.99 85.6244 101.209 86.1223 101.504 86.5751C101.396 86.6833 101.294 86.8085 101.191 86.9166C100.467 87.6787 99.4914 88.1524 98.4448 88.2498C97.3981 88.3471 96.3517 88.0615 95.4996 87.446C95.7351 87.1791 95.9537 86.8977 96.1541 86.6036C97.1673 85.1067 98.186 82.6593 97.1388 80.912C96.1598 79.2842 94.2361 79.7452 93.24 81.0656C92.6838 81.853 92.3393 82.7701 92.2397 83.7289C92.14 84.6877 92.2885 85.6561 92.6709 86.541C92.7585 86.7362 92.8573 86.9263 92.9669 87.1102C92.4232 87.5261 91.8078 87.8386 91.1512 88.0322C90.318 88.2778 89.4352 88.302 88.5899 88.1024C87.7445 87.9027 86.9657 87.4862 86.3304 86.8939C86.2281 86.7865 86.133 86.6724 86.0458 86.5524C86.2109 86.3475 86.3702 86.1426 86.5353 85.9434C87.3151 84.9872 88.2428 84.031 88.7152 82.8642C89.3242 81.3104 88.6526 79.4492 86.763 79.4151C84.8734 79.3809 83.5643 81.2136 83.2456 82.887C82.987 84.1635 83.1696 85.49 83.7635 86.6491C82.6878 87.6622 81.447 88.2769 79.7794 87.7419C76.3644 86.6434 75.061 82.0901 77.0531 79.2614C77.3263 78.8801 76.814 78.4874 76.4839 78.6922C72.4998 80.6843 75.1407 86.8882 77.9808 88.664C78.8517 89.2353 79.8664 89.5486 80.9078 89.5677C81.9492 89.5869 82.9747 89.311 83.8659 88.7721C84.1847 88.5582 84.4838 88.3163 84.7595 88.0493C85.5433 88.8686 86.5141 89.4855 87.5887 89.8474C88.6632 90.2092 89.8095 90.305 90.9292 90.1267C92.1471 89.9196 93.2937 89.4108 94.2645 88.6469C95.1563 89.3811 96.2456 89.8347 97.3949 89.9503C99.5008 90.1722 101.203 89.2217 102.557 87.7248C103.349 88.3993 104.313 88.8406 105.34 88.9998C108.42 89.4892 110.463 87.6907 111.601 85.2148C111.899 85.2103 112.189 85.119 112.436 84.9522C112.682 84.7854 112.875 84.5503 112.99 84.2757C113.023 84.2312 113.037 84.1753 113.029 84.1203C113.021 84.0653 112.992 84.0158 112.947 83.9826C112.903 83.9494 112.847 83.9352 112.792 83.9432C112.737 83.9512 112.687 83.9808 112.654 84.0253ZM85.4653 82.3178C86.4442 80.764 87.3948 81.8112 86.6719 83.2171C86.2726 83.8825 85.7928 84.4961 85.2433 85.0441C85.0867 84.596 85.0269 84.1197 85.0681 83.6467C85.1094 83.1738 85.2506 82.715 85.4824 82.3007L85.4653 82.3178ZM94.2531 83.3992C94.4011 82.83 95.5167 80.8664 95.5964 82.6479C95.553 83.4682 95.3002 84.2638 94.8621 84.9587C94.6931 85.2566 94.5029 85.5419 94.293 85.8125C94.037 85.0246 94.0232 84.178 94.2531 83.3821V83.3992ZM102.147 83.9684C102.101 83.119 102.313 82.2755 102.756 81.5494C103.707 80.0468 103.895 81.9422 103.724 82.7902C103.5 83.7283 103.081 84.6087 102.495 85.3742C102.287 84.9273 102.169 84.4438 102.147 83.9513V83.9684ZM111.254 78.6809C111.715 78.8915 111.339 81.7942 111.254 82.1414C111.13 82.767 110.939 83.3775 110.685 83.9627C109.518 82.3633 109.62 77.9182 111.231 78.6638L111.254 78.6809Z" fill="#618909"/>
<path d="M103.092 102.944C101.18 104.322 98.4592 107.173 96.0289 105.118C96.014 105.105 96.0007 105.089 95.9891 105.073C97.1426 103.704 97.8461 102.013 98.0039 100.229C98.0893 98.5218 96.7062 96.8485 94.9304 97.8844C93.1546 98.9202 93.4734 101.629 93.9458 103.331C94.063 103.742 94.2232 104.138 94.4239 104.515C93.6757 105.36 92.7054 105.977 91.6236 106.297C91.1382 106.431 90.6266 106.437 90.138 106.315C89.6494 106.194 89.2005 105.948 88.8347 105.602C89.6188 104.645 90.2697 103.586 90.7698 102.455C91.4357 100.964 92.0106 99.0398 90.2007 98.1462C89.594 97.8632 88.9108 97.7885 88.2573 97.9336C87.6038 98.0788 87.0165 98.4356 86.5865 98.9487C85.1864 100.656 85.5279 103.502 86.8369 105.551C85.562 106.661 83.9399 107.31 82.204 106.797C81.69 106.614 81.2232 106.319 80.8373 105.933C80.4515 105.547 80.1562 105.08 79.9729 104.566C80.8439 104.372 81.656 103.972 82.342 103.401C83.0279 102.83 83.5679 102.104 83.9171 101.282C84.4863 99.8252 84.2529 97.9242 82.6422 97.2981C81.9426 97.0591 81.1842 97.0536 80.4812 97.2825C79.7781 97.5114 79.1683 97.9623 78.7434 98.5674C77.81 99.8878 77.8157 101.664 78.0889 103.263C76.9802 103.204 75.9323 102.738 75.1464 101.954C73.4389 100.212 73.1714 97.4973 74.0081 95.2947C74.3268 94.4523 73.0063 94.1222 72.6762 94.9304C71.3159 98.2373 72.329 102.608 75.7269 104.253C76.5803 104.646 77.5145 104.831 78.4532 104.794C78.6671 105.611 79.087 106.36 79.673 106.969C80.2589 107.578 80.9912 108.027 81.7999 108.272C84.1391 108.943 86.1767 108.146 87.7874 106.712C88.4073 107.328 89.2025 107.738 90.0641 107.885C92.0049 108.152 93.8945 107.219 95.3459 105.767C96.0673 106.428 97.0209 106.776 97.9982 106.735C100.309 106.678 102.164 105.073 103.405 103.257C103.536 103.075 103.28 102.813 103.092 102.944ZM79.5858 100.349C79.8533 99.3642 81.3559 97.8559 82.4316 98.9487C83.3195 99.8707 82.1698 101.601 81.4299 102.216C80.8811 102.663 80.2363 102.976 79.546 103.132C79.3608 102.212 79.3744 101.263 79.5858 100.349ZM87.3037 101.003C87.5199 99.8309 89.4892 98.4137 89.8079 100.201C90.0071 101.339 88.8745 103.047 88.2427 103.974C88.1403 104.128 88.0208 104.276 87.907 104.424C87.3327 103.382 87.1205 102.179 87.3037 101.003ZM94.7483 101.521C94.7483 100.884 94.7483 99.4496 95.4654 99.1878C95.8809 99.0398 96.3704 99.5008 96.4842 99.7569C96.5688 100.201 96.5213 100.66 96.3476 101.077C96.089 102.02 95.6672 102.91 95.1012 103.707C94.8624 103.003 94.7431 102.264 94.7483 101.521Z" fill="#618909"/>
<path d="M86.4727 120.998C85.4084 120.918 84.2985 120.901 83.5074 120.195C84.5091 118.881 85.3799 116.968 84.4522 115.767C84.315 115.57 84.1326 115.408 83.92 115.295C83.7074 115.182 83.4708 115.121 83.2301 115.119C82.9895 115.116 82.7516 115.171 82.5364 115.279C82.3213 115.387 82.1351 115.544 81.9934 115.739C81.6591 116.207 81.44 116.747 81.354 117.316C81.268 117.885 81.3174 118.466 81.4982 119.012C81.6191 119.347 81.7837 119.664 81.9877 119.956C81.7543 120.202 81.4858 120.411 81.1909 120.577C80.0526 121.146 79.0224 120.577 78.4248 119.564C78.3523 119.433 78.2877 119.298 78.2313 119.16C79.7111 117.942 81.5267 115.745 80.2973 113.747C79.0053 111.675 76.3132 113.218 75.9148 115.124C75.731 116.367 75.8904 117.637 76.3758 118.795H76.3359C75.7428 119.221 75.0228 119.432 74.2938 119.395C73.5648 119.358 72.87 119.074 72.3234 118.59C71.1054 117.549 70.6159 115.961 70.2744 114.441C70.0638 113.451 69.4093 111.243 70.5931 110.588C70.6567 110.551 70.7063 110.494 70.7345 110.426C70.7626 110.359 70.7677 110.283 70.749 110.212C70.7303 110.141 70.6887 110.078 70.6307 110.033C70.5728 109.988 70.5015 109.963 70.428 109.962C68.3335 109.962 68.7205 112.671 68.9254 114.037C69.2954 116.314 69.9898 118.67 72.0103 120.036C73.6552 121.174 75.4253 120.884 76.9734 120.002C77.1846 120.374 77.4345 120.724 77.719 121.044C78.0212 121.38 78.388 121.652 78.7977 121.844C79.2073 122.036 79.6513 122.143 80.1033 122.16C80.5553 122.176 81.006 122.101 81.4285 121.94C81.851 121.778 82.2367 121.534 82.5626 121.22C82.6536 121.14 82.7561 121.032 82.8528 120.93C83.9286 121.863 85.3913 122.341 86.5865 121.499C86.6371 121.471 86.6773 121.427 86.7009 121.374C86.7245 121.321 86.7303 121.262 86.7175 121.206C86.7046 121.149 86.6739 121.099 86.6297 121.061C86.5856 121.024 86.5305 121.001 86.4727 120.998ZM77.6621 116.063C77.6621 115.494 77.7532 114.72 78.4134 114.521C79.0736 114.322 79.2216 115.21 79.1248 115.705C78.8965 116.498 78.4295 117.201 77.7873 117.72C77.6863 117.174 77.6443 116.618 77.6621 116.063ZM82.7219 117.646C82.7324 117.308 82.8305 116.978 83.0065 116.689C83.5415 116.149 83.4846 117.128 83.3993 117.452C83.2609 117.97 83.048 118.464 82.7675 118.921C82.6756 118.502 82.6602 118.07 82.7219 117.646Z" fill="#618909"/>
<path d="M67.7985 66.7C69.21 63.6721 70.1492 60.5702 69.4149 57.2519C68.8458 54.759 66.5691 52.4027 63.9282 51.3156C63.9282 51.3156 63.9282 51.2644 63.8884 51.2416C60.2457 47.9405 54.6395 49.7106 50.9513 52.1295C46.3298 55.1688 43.5921 59.8075 41.8448 64.947C39.8868 70.6386 39.2323 76.666 37.7866 82.4942C36.5062 87.9081 34.6059 93.1562 32.1235 98.1348C29.344 103.716 25.3957 108.633 20.5467 112.552C20.227 112.872 20.0474 113.306 20.0474 113.758C20.0474 114.211 20.227 114.645 20.5467 114.965C23.6543 117.811 27.9117 117.475 31.5145 115.858C31.7011 116.339 31.9665 116.786 32.2999 117.179C32.7687 117.723 33.3518 118.156 34.0074 118.448C34.294 118.565 34.5978 118.634 34.9067 118.653C34.9863 118.659 35.0661 118.659 35.1457 118.653C35.2507 118.645 35.3552 118.632 35.4588 118.613C35.7319 118.499 35.7661 118.488 35.5669 118.573C35.6181 118.573 35.732 118.511 35.7832 118.494C35.8344 118.477 36.0052 118.408 36.1133 118.351C36.285 118.259 36.4301 118.124 36.5345 117.959C36.5686 117.913 36.5345 117.856 36.5686 117.799C37.6313 117.747 38.6786 117.524 39.6706 117.139C40.4958 118.977 42.8408 120.178 44.7532 120.343C48.4129 120.662 52.0726 118.3 54.9981 116.411C60.8377 112.643 66.0341 107.213 67.1895 100.11C67.5733 97.8383 67.4763 95.5116 66.9049 93.2799C67.9806 89.5746 67.1098 84.5603 66.9049 81.5836C66.681 78.2386 66.7591 74.8802 67.1383 71.5493C67.2977 69.9499 67.5481 68.3221 67.7985 66.7Z" fill="#7AB20F"/>
<path d="M66.4837 63.6436C65.5446 64.0477 63.5469 64.8958 62.8013 63.8371C62.6432 63.5907 62.5277 63.3194 62.4598 63.0346C63.6493 61.6629 65.0836 59.3009 63.1599 58.2878C61.9874 57.6731 61.1905 58.7488 61.0084 59.7961C60.8576 60.7024 60.8576 61.6274 61.0084 62.5337C60.7133 62.8409 60.3783 63.1069 60.0124 63.3249C58.8741 63.968 57.3544 64.0534 56.4779 63.0118C56.7053 62.8874 56.9257 62.7506 57.1381 62.6021C58.6635 61.5093 60.6612 59.4887 59.2212 57.5194C57.7813 55.5501 55.294 57.5194 54.6679 59.2269C54.3071 60.2392 54.2654 61.3377 54.5484 62.3744C53.3191 62.6931 51.9701 62.3744 51.3953 61.1222C50.1033 58.2764 52.4198 55.4306 54.8672 54.2638C54.9151 54.2234 54.9502 54.1699 54.9683 54.1099C54.9864 54.0499 54.9868 53.9859 54.9693 53.9257C54.9519 53.8655 54.9173 53.8116 54.8699 53.7706C54.8225 53.7296 54.7642 53.7032 54.7021 53.6947C50.718 53.8996 47.9632 59.8758 50.9627 62.8525C52.101 63.9908 53.6662 64.0705 55.1062 63.6322C55.2992 63.9392 55.5393 64.2139 55.8177 64.4461C57.5251 65.8349 59.8018 65.3227 61.4011 64.0762C61.5858 64.5591 61.9139 64.9738 62.3412 65.2648C62.7685 65.5558 63.2747 65.7091 63.7916 65.704C65.021 65.704 65.9886 64.9868 66.8594 64.1957C67.1668 63.8827 66.7911 63.507 66.4837 63.6436ZM56.0624 59.5912C56.1557 59.292 56.3073 59.0142 56.5086 58.7738C56.7098 58.5335 56.9567 58.3355 57.2349 58.1911C58.0089 57.8894 58.3732 58.6521 58.248 59.3294C58.0374 60.3083 56.9389 61.219 55.9144 61.7938C55.7553 61.0603 55.8066 60.2968 56.0624 59.5912Z" fill="#618909"/>
<path d="M63.7404 80.5534C62.3858 80.9518 60.684 82.7105 59.2497 81.6917C59.0325 81.5317 58.8406 81.3398 58.6805 81.1226C60.0647 79.6937 60.875 77.8057 60.9572 75.818C60.9856 74.8049 60.8604 73.4787 59.7733 73.0576C58.6862 72.6364 57.4967 73.3877 56.8194 74.139C55.1119 76.0001 55.5729 78.6524 56.6942 80.7583C55.8228 81.4526 54.7345 81.8174 53.6207 81.7885C53.1015 81.7455 52.6072 81.5479 52.2014 81.2212C51.7956 80.8946 51.497 80.4538 51.3441 79.9558C52.9605 78.6809 54.3151 76.8254 53.9679 74.7024C53.5296 71.9705 50.3651 72.386 49.6878 74.748C49.2644 76.2671 49.2118 77.8657 49.5341 79.4094C48.7316 79.9103 47.7697 80.3656 46.8591 79.9786C46.0492 79.5169 45.4268 78.7858 45.1003 77.9125C44.2909 76.0581 44.248 73.9589 44.9808 72.0729C45.1288 71.6802 44.5027 71.4241 44.3092 71.7883C43.7235 72.9192 43.4121 74.1721 43.4002 75.4456C43.3883 76.7191 43.6763 77.9775 44.2409 79.1191C44.4252 79.6815 44.7425 80.191 45.1658 80.6045C45.5892 81.018 46.1061 81.3232 46.6726 81.4942C47.2392 81.6651 47.8386 81.6968 48.42 81.5866C49.0014 81.4763 49.5476 81.2273 50.0122 80.8608C50.2877 81.4375 50.6746 81.9539 51.1505 82.3804C52.9889 84.0196 55.6697 83.3992 57.5365 82.1015C57.5447 82.1175 57.5542 82.1327 57.565 82.1471C59.3635 84.4693 63.0175 83.4334 64.0193 80.8608C64.0397 80.8206 64.0474 80.7753 64.0415 80.7306C64.0355 80.686 64.0161 80.6442 63.9858 80.6109C63.9556 80.5775 63.9159 80.5542 63.8721 80.5439C63.8282 80.5337 63.7823 80.537 63.7404 80.5534ZM51.1847 75.1293C51.3099 74.7366 51.5262 74.23 52.0157 74.304C52.5052 74.378 52.5848 75.1179 52.5165 75.6017C52.3497 76.6567 51.8056 77.6153 50.9855 78.2995C50.9855 78.1003 50.9513 77.9011 50.9513 77.7304C50.9013 76.8566 50.9799 75.9802 51.1847 75.1293ZM57.4455 76.6945C57.5603 76.0749 57.8646 75.5061 58.3163 75.0667C58.5667 74.8447 58.9651 74.4976 59.2383 74.839C59.3977 75.0326 59.318 75.6643 59.3123 75.9205C59.2476 77.259 58.748 78.5399 57.8894 79.5688L57.8325 79.4265C57.4432 78.5721 57.3069 77.624 57.4398 76.6945H57.4455Z" fill="#618909"/>
<path d="M63.0972 99.4553C62.4713 100.019 61.6732 100.356 60.8322 100.409C59.9913 100.463 59.1569 100.231 58.4643 99.7512C59.7536 98.3951 60.6335 96.7022 61.0027 94.8678C61.31 93.3368 60.3994 90.9463 58.4358 91.8911C57.5763 92.3009 57.0356 93.3823 56.6202 94.1678C56.0418 95.1759 55.7376 96.318 55.738 97.4803C55.7709 98.256 56.0063 99.0095 56.421 99.6659C55.8242 99.9074 55.1653 99.9493 54.5427 99.7854C53.319 99.4723 52.5905 98.1633 52.2661 96.7119C52.6011 96.3912 52.9148 96.049 53.2052 95.6874C54.1215 94.5491 55.5843 92.8815 55.2428 91.2821C54.8444 89.3754 52.7157 90.0413 51.7709 91.0886C50.6326 92.3863 50.5415 94.1052 50.8318 95.733C49.4146 96.9168 47.4168 97.2185 46.1419 95.9265C47.6758 94.747 48.894 93.2062 49.6878 91.4415C50.3594 89.8706 49.2609 88.5957 47.6502 88.5957C44.2637 88.5558 42.6245 92.6367 43.6661 95.4825C43.521 95.5355 43.3727 95.5792 43.2221 95.6134C40.4901 96.0631 39.0843 93.0693 39.1128 90.7756C39.1412 88.4818 40.2795 86.8313 41.9244 85.4084C42.2602 85.1124 41.9244 84.4692 41.4748 84.6343C38.5379 85.7726 37.2459 89.512 37.8037 92.4432C37.9475 93.2782 38.2605 94.075 38.7234 94.7846C39.1864 95.4942 39.7895 96.1016 40.4958 96.5696C41.0997 96.9035 41.7696 97.1006 42.4581 97.1468C43.1466 97.193 43.8369 97.0873 44.48 96.8371C45.0049 97.4633 45.6786 97.9477 46.4393 98.246C47.2 98.5443 48.0234 98.647 48.834 98.5446C49.7196 98.4066 50.5601 98.0615 51.2871 97.5372C51.714 98.9032 52.3742 100.229 53.7743 100.798C54.3252 101.037 54.9233 101.147 55.523 101.119C56.1227 101.091 56.7082 100.927 57.2349 100.639C57.6847 101.064 58.2221 101.386 58.8093 101.581C59.3965 101.777 60.0193 101.841 60.6342 101.771C61.249 101.7 61.841 101.496 62.3687 101.173C62.8965 100.85 63.3471 100.415 63.6892 99.8992C63.9453 99.5407 63.4046 99.1878 63.0972 99.4553ZM45.6353 92.0562C45.9427 91.487 47.081 89.956 47.912 90.3828C48.3958 90.6219 47.7356 91.4699 47.4908 91.8626C47.1684 92.4075 46.813 92.9321 46.4265 93.4335C46.1028 93.8499 45.7365 94.2314 45.3337 94.5719C45.1066 93.7214 45.2167 92.816 45.641 92.0448L45.6353 92.0562ZM53.6377 91.7887C53.8199 91.931 53.2109 92.853 53.1255 92.9839C52.8182 93.4677 52.4937 93.9401 52.1409 94.3954C52.1756 93.9056 52.291 93.4248 52.4824 92.9725C52.545 92.8302 53.3247 91.5212 53.6377 91.7773V91.7887ZM57.434 98.3682C56.9389 97.0705 57.4341 95.7159 58.0886 94.5662C58.248 94.2873 58.6236 93.3937 58.9537 93.2799C60.3482 92.8018 59.6367 95.1353 59.4717 95.6703C59.1309 96.8489 58.521 97.9322 57.6902 98.8349C57.5921 98.6827 57.5064 98.5228 57.434 98.3568V98.3682Z" fill="#618909"/>
<path d="M53.5752 111.459C52.7533 111.763 51.9849 112.195 51.2985 112.739C50.7294 113.161 50.2911 113.514 49.591 113.115C49.1668 112.832 48.7967 112.476 48.4983 112.062C48.3577 111.874 48.2339 111.674 48.1283 111.465L48.2649 111.322C49.3235 110.047 50.8375 107.19 49.3122 105.767C49.1986 105.659 49.0536 105.59 48.8981 105.569C48.7426 105.549 48.5847 105.578 48.447 105.653C47.4975 106.178 46.7621 107.019 46.369 108.03C45.9758 109.041 45.9499 110.158 46.2956 111.186C45.6217 111.621 44.8134 111.799 44.019 111.687C42.9108 111.522 41.9105 110.932 41.2301 110.042C41.0614 109.811 40.929 109.556 40.8373 109.285C42.064 108.459 43.0718 107.347 43.7742 106.046C44.4515 104.868 45.5899 102.523 43.8425 101.641C42.0952 100.759 40.2682 103.001 39.5738 104.322C38.9208 105.518 38.6656 106.892 38.8453 108.243C38.1736 108.479 37.4412 108.475 36.7722 108.232C36.1031 107.989 35.5385 107.523 35.1742 106.911C33.3358 104.202 35.3165 101.288 37.3939 99.4553C37.7411 99.1479 37.3939 98.4592 36.9272 98.6471C36.0777 98.924 35.3121 99.4116 34.7018 100.064C34.0086 100.805 33.4723 101.678 33.1252 102.631C32.7915 103.541 32.6917 104.52 32.8349 105.479C32.9781 106.438 33.3597 107.345 33.9448 108.118C34.5053 108.893 35.2778 109.49 36.1694 109.836C37.0611 110.182 38.0338 110.264 38.9705 110.07C39.1185 110.036 39.2608 109.985 39.4087 109.939C39.7828 110.677 40.3106 111.327 40.9566 111.844C41.6025 112.362 42.3517 112.735 43.1538 112.939C44.4076 113.261 45.7373 113.092 46.8704 112.466C46.9758 112.665 47.0956 112.855 47.229 113.035C48.0088 114.049 49.3577 115.312 50.7578 114.902C51.4855 114.655 52.1425 114.236 52.6728 113.68C53.2031 113.124 53.5908 112.448 53.8028 111.709C53.8106 111.677 53.8103 111.643 53.8019 111.611C53.7936 111.578 53.7776 111.549 53.7551 111.524C53.7327 111.499 53.7046 111.48 53.6732 111.469C53.6418 111.458 53.6082 111.454 53.5752 111.459ZM40.7918 106.644C41.0528 105.465 41.6998 104.408 42.6302 103.639C42.7482 103.557 42.8604 103.468 42.966 103.371C42.9702 103.59 42.9275 103.807 42.8408 104.009C42.5956 104.662 42.2746 105.285 41.8846 105.864C41.5609 106.368 41.1638 106.821 40.7064 107.207C40.7292 107.019 40.752 106.826 40.7918 106.644ZM48.5552 107.355C48.4889 108.216 48.1899 109.042 47.69 109.746C47.6539 109.308 47.7124 108.869 47.8617 108.456C48.011 108.044 48.2476 107.668 48.5552 107.355Z" fill="#618909"/>
</g>
<defs>
<clipPath id="clip0_2_80">
<rect width="305.748" height="338.19" fill="white"/>
</clipPath>
</defs>
</svg>
