<svg width="1440" height="648" viewBox="0 0 1440 648" fill="none" xmlns="http://www.w3.org/2000/svg">
<path d="M468.5 263C328.5 62.5 205.667 117.5 100.5 137C137.167 309.167 230.8 657.9 312 675.5C413.5 697.5 636.5 796.5 773.5 843C910.5 889.5 1331.5 769 1521.5 763.5C1673.5 759.1 1610.5 494 1560 362C1509.5 379.5 1373.3 407.9 1232.5 381.5C1056.5 348.5 1046 334.5 801 469.5C705.5 522.122 690.047 507.448 623.5 469.5C563 435 578.32 420.277 468.5 263Z" fill="#EDE5DE"/>
<path d="M318 366.5C249.2 230.9 65 65.6667 -18.5 0H-36.5C-60.3333 104.333 -108 319.5 -108 345.5C-108 371.5 -76.3333 572.667 -60.5 670L246.5 968C509.5 977.833 1039.7 997.5 1056.5 997.5C1073.3 997.5 1369.17 803.167 1515 706C1550.67 518.333 1586.3 156.7 1443.5 211.5C1265 280 1166.5 628.5 1128 670C1089.5 711.5 571 682 517.5 670C464 658 404 536 318 366.5Z" fill="#F5F5F0"/>
</svg>
