<svg width="1725" height="998" viewBox="0 0 1725 998" fill="none" xmlns="http://www.w3.org/2000/svg">
<path d="M576.5 263C436.5 62.5 313.667 117.5 208.5 137C245.167 309.167 338.8 657.9 420 675.5C521.5 697.5 744.5 796.5 881.5 843C1018.5 889.5 1439.5 769 1629.5 763.5C1781.5 759.1 1718.5 494 1668 362C1617.5 379.5 1481.3 407.9 1340.5 381.5C1164.5 348.5 1154 334.5 909 469.5C813.5 522.122 798.047 507.448 731.5 469.5C671 435 686.32 420.277 576.5 263Z" fill="#EDE5DE"/>
<path d="M426 366.5C357.2 230.9 173 65.6667 89.5 0H71.5C47.6667 104.333 0 319.5 0 345.5C0 371.5 31.6667 572.667 47.5 670L354.5 968C617.5 977.833 1147.7 997.5 1164.5 997.5C1181.3 997.5 1477.17 803.167 1623 706C1658.67 518.333 1694.3 156.7 1551.5 211.5C1373 280 1274.5 628.5 1236 670C1197.5 711.5 679 682 625.5 670C572 658 512 536 426 366.5Z" fill="#F5F5F0"/>
</svg>
