<svg width="926" height="2479" viewBox="0 0 926 2479" fill="none" xmlns="http://www.w3.org/2000/svg">
<path d="M638.191 435.5C541.391 163.1 699.191 -253.667 790.191 -428H1043.19L1107.69 -168L1146.19 1276.5L1208.19 1962C961.524 2238.83 496.491 2666.2 609.691 2161C751.191 1529.5 189.691 1279 91.6906 1145C-6.30942 1011 -119.809 495 300.191 526C636.191 550.8 665.524 476 638.191 435.5Z" fill="#F5F5F0"/>
<path d="M653.5 945.5C672.934 820.485 878.5 458.833 981 355L1008 613C1022.33 833.833 1051 1288 1051 1338V2543C950.167 2584.5 724.503 2642.33 628.5 2653.5C164.5 2707.5 44.5 2535 44.5 2343C44.5 2151 381.034 1855.07 551.5 1626C838 1241 620 1161 653.5 945.5Z" fill="#EDE5DE"/>
</svg>
